<mxfile host="app.diagrams.net" modified="2023-08-30T15:42:55.014Z" agent="Mozilla/5.0 (Windows NT 10.0; Win64; x64) AppleWebKit/537.36 (KHTML, like Gecko) Chrome/116.0.0.0 Safari/537.36" version="21.7.1" etag="bKKwWVkyRotVhPVLcfm0" type="github">
  <diagram name="Page-1" id="05xRyv7UVUCQYfuWeo3y">
    <mxGraphModel>
      <root>
        <mxCell id="0" />
        <mxCell id="1" parent="0" />
      </root>
    </mxGraphModel>
  </diagram>
</mxfile>
